<?xml version="1.0" standalone="no"?>
<!DOCTYPE svg PUBLIC "-//W3C//DTD SVG 20010904//EN"
 "http://www.w3.org/TR/2001/REC-SVG-20010904/DTD/svg10.dtd">
<svg version="1.0" xmlns="http://www.w3.org/2000/svg"
 width="700.000000pt" height="700.000000pt" viewBox="0 0 700.000000 700.000000"
 preserveAspectRatio="xMidYMid meet">
<metadata>
Created by potrace 1.14, written by Peter Selinger 2001-2017
</metadata>
<g transform="translate(0.000000,700.000000) scale(0.100000,-0.100000)"
fill="#000000" stroke="none">
<path d="M3278 6996 c-1 -2 -42 -6 -89 -10 -47 -4 -96 -9 -109 -11 -12 -2 -48
-7 -79 -11 -31 -3 -65 -8 -76 -10 -11 -2 -36 -7 -55 -10 -160 -28 -501 -123
-605 -169 -16 -7 -61 -25 -100 -40 -110 -42 -329 -152 -455 -228 -101 -61
-256 -162 -270 -177 -3 -3 -43 -34 -90 -70 -47 -35 -98 -76 -114 -90 -498
-433 -847 -946 -1054 -1555 -38 -110 -83 -272 -97 -348 -3 -15 -12 -59 -20
-98 -8 -38 -17 -84 -19 -102 -3 -18 -7 -48 -11 -68 -20 -122 -30 -281 -30
-504 1 -194 7 -327 20 -406 2 -13 6 -46 10 -74 16 -127 34 -220 71 -370 24
-96 76 -268 93 -310 5 -11 30 -75 55 -142 176 -457 490 -910 882 -1273 125
-116 428 -350 454 -350 5 0 10 -4 10 -10 0 -5 5 -10 11 -10 6 0 30 -14 54 -30
24 -17 47 -30 51 -30 4 0 15 -6 23 -14 23 -19 218 -120 330 -170 266 -120 624
-227 866 -260 27 -4 74 -11 144 -22 201 -30 696 -25 908 10 21 4 54 9 73 11
19 3 46 7 60 10 14 2 39 7 55 10 106 20 345 82 405 106 14 5 34 11 45 13 11 3
79 28 150 56 631 249 1177 673 1564 1215 39 55 75 105 79 110 4 6 36 57 71
113 94 155 159 284 256 507 16 37 75 206 104 295 46 147 108 439 127 605 4 33
9 76 11 95 8 68 10 546 2 610 -4 36 -10 92 -14 125 -22 218 -89 505 -173 747
-234 669 -692 1278 -1267 1683 -66 47 -125 90 -132 95 -7 6 -14 10 -16 10 -3
0 -44 24 -91 54 -329 206 -837 392 -1241 452 -27 4 -57 9 -65 10 -8 2 -42 6
-76 9 -33 4 -74 9 -90 11 -32 5 -540 14 -546 10z"/>
</g>
</svg>
